<?xml version="1.0" encoding="UTF-8"?>
<svg id="_图层_1" data-name="图层 1" xmlns="http://www.w3.org/2000/svg" xmlns:xlink="http://www.w3.org/1999/xlink" viewBox="0 0 64 64">
  <defs>
    <style>
      .cls-1 {
        fill: #000;
      }

      .cls-1, .cls-2, .cls-3, .cls-4, .cls-5 {
        stroke-width: 0px;
      }

      .cls-2 {
        fill: #ff8100;
      }

      .cls-3 {
        fill: url(#_未命名的渐变);
      }

      .cls-4 {
        fill: url(#_未命名的渐变_2);
      }

      .cls-5 {
        fill: #fff;
      }
    </style>
    <linearGradient id="_未命名的渐变" data-name="未命名的渐变" x1="-.39" y1="58.33" x2="24.39" y2="4.87" gradientTransform="translate(0 66) scale(1 -1)" gradientUnits="userSpaceOnUse">
      <stop offset=".1" stop-color="#fc801d"/>
      <stop offset=".59" stop-color="#fe2857"/>
    </linearGradient>
    <linearGradient id="_未命名的渐变_2" data-name="未命名的渐变 2" x1="4.33" y1="6.07" x2="62.92" y2="64.66" gradientTransform="translate(0 66) scale(1 -1)" gradientUnits="userSpaceOnUse">
      <stop offset=".21" stop-color="#fe2857"/>
      <stop offset=".7" stop-color="#007eff"/>
    </linearGradient>
  </defs>
  <path class="cls-2" d="M16.45,6H4.19c-2.28,0-4.12,1.85-4.12,4.13,0,.02,0,.04,0,.06l.18,11.04c.02,1.18.54,2.3,1.44,3.07l38.16,32.71c.75.64,1.7.99,2.68.99h11.35c2.28,0,4.12-1.85,4.12-4.13v-11c0-1.19-.51-2.32-1.41-3.1L19.17,7.02c-.75-.66-1.72-1.02-2.72-1.02Z"/>
  <path class="cls-3" d="M14.99,6H4.12C1.85,6,0,7.85,0,10.13h0v12.57c0,.2.01.4.04.6l5.45,37.18c.3,2.03,2.03,3.53,4.08,3.53h15.4c2.28,0,4.12-1.85,4.12-4.12h0s0-18.51,0-18.51c0-.43-.07-.85-.19-1.25l-9.98-31.25c-.55-1.71-2.13-2.87-3.93-2.87Z"/>
  <path class="cls-4" d="M59.88,0H25.75c-1.66,0-3.15.99-3.8,2.52L6.15,39.94c-.22.52-.33,1.08-.32,1.64l.15,18.33c.02,2.26,1.86,4.09,4.12,4.09h17.67c.81,0,1.59-.24,2.27-.68l32.11-21.11c1.16-.76,1.86-2.06,1.86-3.45V4.13C64,1.85,62.15,0,59.88,0Z"/>
  <path class="cls-1" d="M52,12H12v40h40V12Z"/>
  <path class="cls-5" d="M33,44h-16v3h16v-3ZM17,29.38h2.98v-9.77h-2.98v-2.62h8.84v2.62h-2.98v9.77h2.98v2.62h-8.84v-2.62h0ZM27.64,29.3h2.15c.41,0,.81-.09,1.16-.28.34-.19.6-.45.79-.79s.28-.73.28-1.16v-10.08h2.93v10.28c0,.9-.21,1.71-.62,2.43-.41.71-1,1.29-1.72,1.69-.73.41-1.55.61-2.45.61h-2.52s0-2.7,0-2.7Z"/>
</svg>